# xmcd
#
# Track frame offsets:
# 150
# 17257
# 31702
# 40792
# 60037
# 71560
# 91455
# 109890
# 131362
# 149797
#
# Disc length: 2261 seconds
#
#
# Revision: 2
# Processed by: cddbd v1.4PL0 Copyright (c) Steve Scherf et al.
# Submitted via: FreeRIP 2.52 
#
DISCID=7a08d30a
DTITLE=Garth Brooks - The Chase
DYEAR=1900
DGENRE=Country
TTITLE0=We Shall Be Free
TTITLE1=Somewhere Other Than The Night
TTITLE2=Mr. Right
TTITLE3=Every Now And Then
TTITLE4=Walking After Midnight
TTITLE5=Dixie Chicken
TTITLE6=Learning To Live Again
TTITLE7=That Summer
TTITLE8=Night Rider's Lament
TTITLE9=Face To Face
EXTD=
EXTT0=
EXTT1=
EXTT2=
EXTT3=
EXTT4=
EXTT5=
EXTT6=
EXTT7=
EXTT8=
EXTT9=
PLAYORDER=
